<svg xmlns="http://www.w3.org/2000/svg" width="612" height="612" viewBox="0 0 612 612">
<defs>
<style>.cls-1{fill:#000;}</style>
</defs>
<g id="Layer_2" data-name="Layer 2"><path class="cls-1" d="M223.16,554.8q-27.61-7.63-42.87-30.16T153.4,453.43a503.41,503.41,0,0,1-10.17-60.32q-3.64-32.7-3.64-85,0-51.58,4-84.29a589.13,589.13,0,0,1,10.54-61q11.61-48.69,26.52-71.22t42.51-30.16q27.61-7.62,82.84-7.63t82.84,7.63Q416.46,69,431.36,91.54t26.52,71.22a591.81,591.81,0,0,1,10.54,61q4,32.7,4,84.29,0,52.32-3.63,85a505.42,505.42,0,0,1-10.17,60.32Q447,502.12,431.72,524.64T388.84,554.8q-27.61,7.63-82.84,7.63T223.16,554.8Zm136.25-53.41q18.54-7.26,26.89-22.53t13.44-44.33l.73-5.81q10.17-50.85,10.17-120.63,0-43.6-2.9-70.85t-7.27-49.78l-.73-5.81q-5.08-29.06-13.44-44.33t-26.89-22.53q-18.53-7.25-53.41-7.26t-53.41,7.26q-18.53,7.27-26.88,22.53t-13.45,44.33l-.72,5.81q-4.36,22.53-7.27,49.78t-2.91,70.85q0,69.77,10.18,120.63l.72,5.81q5.09,29.09,13.45,44.33t26.88,22.53q18.54,7.28,53.41,7.27T359.41,501.39ZM285.29,361.14q-6.18-1.45-9.08-4.72t-4.36-11.27q-3.64-15.25-3.63-37.06,0-22.51,2.9-32l.73-4.36c1.45-5.82,3-9.93,4.72-12.36s4.48-4,8.36-4.72,10.41-1.09,19.62-1.09q18.88,0,24.71,3.27t8,14.17q3.63,15.27,3.63,37.06,0,22.53-2.9,32l-.73,4.36q-2.17,8.71-4.72,12.35t-8.36,4.72q-5.82,1.1-19.62,1.09C295.83,362.59,289.4,362.12,285.29,361.14Z"/></g></svg>